<?xml version="1.0" encoding="iso-8859-1"?>
<!-- Generator: Adobe Illustrator 19.0.0, SVG Export Plug-In . SVG Version: 6.00 Build 0)  -->
<svg version="1.1" id="Capa_1" xmlns="http://www.w3.org/2000/svg" xmlns:xlink="http://www.w3.org/1999/xlink" x="0px" y="0px"
	 viewBox="0 0 512 512" style="enable-background:new 0 0 512 512;" xml:space="preserve">
<g>
	<g>
		<path d="M471.617,80.641c-53.844-53.845-141.455-53.844-195.298,0l-20.286,20.286l-20.286-20.286
			c-44.399-44.399-113.21-53.286-167.336-21.613c-3.698,2.163-4.941,6.915-2.778,10.613c2.163,3.696,6.914,4.94,10.613,2.777
			c48.041-28.111,109.119-20.218,148.53,19.193l25.771,25.771c1.454,1.455,3.428,2.272,5.485,2.272s4.031-0.817,5.485-2.272
			l25.771-25.771c23.153-23.153,53.936-35.903,86.679-35.903c32.743,0,63.526,12.751,86.679,35.904s35.903,53.936,35.903,86.679
			c0,32.744-12.751,63.527-35.903,86.679l-182.01,182.01c-6.038,6.038-14.066,9.363-22.605,9.363s-16.566-3.325-22.604-9.363
			L51.417,264.97c-23.153-23.153-35.903-53.936-35.903-86.679s12.751-63.526,35.904-86.679c3.03-3.029,3.03-7.941,0-10.97
			c-3.029-3.03-7.94-3.03-10.97,0C14.365,106.724,0,141.403,0,178.29c0,36.887,14.365,71.566,40.448,97.649l182.01,182.01
			c9.256,9.257,21.416,13.885,33.574,13.885c12.159,0,24.318-4.628,33.575-13.885l182.01-182.01
			C525.461,222.095,525.461,134.485,471.617,80.641z"/>
	</g>
</g>
<g>
	<g>
		<path d="M444.557,107.701c-18.828-18.828-43.898-29.196-70.591-29.196s-51.762,10.369-70.588,29.196l-25.771,25.771
			c-11.896,11.896-31.252,11.897-43.148,0.001l-25.772-25.771c-18.855-18.856-43.925-29.24-70.59-29.24
			c-26.665,0-51.735,10.383-70.589,29.238c-18.856,18.856-29.24,43.925-29.24,70.59c0,26.666,10.384,51.735,29.24,70.59l182,182
			c2.231,2.239,4.779,2.709,6.525,2.709c1.741,0,4.284-0.468,6.514-2.698l23.649-23.649c3.03-3.029,3.03-7.941,0-10.97
			c-3.029-3.03-7.941-3.03-10.97,0l-19.194,19.193L78.478,237.91c-15.925-15.925-24.696-37.098-24.696-59.62
			c0-22.521,8.771-43.694,24.696-59.62c15.925-15.925,37.098-24.695,59.619-24.695c22.521,0,43.695,8.771,59.62,24.696
			l25.772,25.771c17.944,17.945,47.143,17.945,65.088-0.001l25.771-25.771c15.896-15.897,37.069-24.652,59.618-24.652
			c22.55-0.001,43.724,8.754,59.621,24.652c32.874,32.875,32.874,86.365,0,119.24L299.014,372.484c-3.03,3.029-3.03,7.941,0,10.97
			c3.029,3.029,7.941,3.029,10.97,0L444.557,248.88C483.48,209.957,483.48,146.624,444.557,107.701z"/>
	</g>
</g>
<g>
</g>
<g>
</g>
<g>
</g>
<g>
</g>
<g>
</g>
<g>
</g>
<g>
</g>
<g>
</g>
<g>
</g>
<g>
</g>
<g>
</g>
<g>
</g>
<g>
</g>
<g>
</g>
<g>
</g>
</svg>
